# xmcd
#
# Track frame offsets:
# 150
# 18762
# 38730
# 59998
# 80401
# 102736
# 121885
# 143117
# 164620
# 184744
# 206414
# 223793
# 248028
# 265806
# 284167
# 301369
#
# Disc length: 4366 seconds
#
#
# Revision: 1
# Processed by: cddbd v1.5.1PL2 Copyright (c) Steve Scherf et al.
# Submitted via: FreeRIP 2.945 
#
DISCID=f4110c10
DTITLE=Aqui esta el Merengue - Serie 32 CD2
DYEAR=1997
DGENRE=Merengue
TTITLE0=Wilfrido Vargas - Dime Si te Gusta
TTITLE1=Dioni Fernandez - Los Diseñadores
TTITLE2=Bonny Cepeda - Asesina
TTITLE3=Fernandito Villalona - La Hamaquita
TTITLE4=Las Chicas del Can - Juana la Cubana
TTITLE5=Carlos Alfredo - Al Lado
TTITLE6=Wilfrido Vargas - Salvame
TTITLE7=The New York Band - Dame Vida
TTITLE8=Roberto Antonio - Quien Sera
TTITLE9=Carlos alfredo - Solo en Mi Cuarto
TTITLE10=Wilfrido Vargas - 13 años
TTITLE11=Dioni renandez - Fiesta y Fiesta
TTITLE12=Los Vecinos - La Guacherna
TTITLE13=Roberto Antonio - Marejada
TTITLE14=LAs Chicas del Can - Papi Tu
TTITLE15=India - Merengue Internacional
EXTD=YEAR: 1997
EXTT0=
EXTT1=
EXTT2=
EXTT3=
EXTT4=
EXTT5=
EXTT6=
EXTT7=
EXTT8=
EXTT9=
EXTT10=
EXTT11=
EXTT12=
EXTT13=
EXTT14=
EXTT15=
PLAYORDER=
